<?xml version="1.0" encoding="UTF-8" standalone="no"?>
<!-- Created with Inkscape (http://www.inkscape.org/) -->
<svg id="svg2" xmlns:rdf="http://www.w3.org/1999/02/22-rdf-syntax-ns#" xmlns="http://www.w3.org/2000/svg" height="175" width="500" version="1.1" xmlns:cc="http://creativecommons.org/ns#" xmlns:dc="http://purl.org/dc/elements/1.1/" viewBox="0 0 499.99998 175">
 <metadata id="metadata7">
  <rdf:RDF>
   <cc:Work rdf:about="">
    <dc:format>image/svg+xml</dc:format>
    <dc:type rdf:resource="http://purl.org/dc/dcmitype/StillImage"/>
    <dc:title/>
   </cc:Work>
  </rdf:RDF>
 </metadata>
 <g id="layer1" transform="translate(0 -877.36)">
  <text id="text4136" style="word-spacing:0px;letter-spacing:0px" font-weight="600" xml:space="preserve" font-size="46.429px" line-height="125%" y="980.24133" x="61.063908" font-family="Consolas, Calibri, Georgia" font-style="italic" fill="#ffffff"><tspan id="tspan4138" x="61.063908" y="980.24133">Christmas Carol</tspan></text>
  <g fill-rule="evenodd">
   <path id="path4142" d="m76.004 942.43c-30.93-2.6247-45.661 5.4947-47.433 22.21 7.262-5.5906 14.172-11.795 29.241-3.7946z" fill="#f44336"/>
   <path id="path4144" d="m57.924 960.84c-16.872-8.1775-22.309-0.97391-29.464 3.683 2.6092-10.903 12.028-16.021 34.821-8.817z" fill-opacity=".30196"/>
   <path id="path4140" d="m66.827 957.32c8.9191-11.437 20.964-6.349 15.327-13.424-1.2433-1.5603-2.9764-4.8882-14.717 3.6858-15.173 11.081-11.41 16.951-10.956 17.483 0.32985 0.38644 2.1905 1.309 4.8046 1.9108 0.83482 0.1922 1.2979-8.022 5.5409-9.6562z" fill="#ebebeb"/>
  </g>
  <ellipse id="path4146" rx="1.9531" ry="1.7857" cy="965.09" cx="28.627" fill="#ebebeb"/>
 </g>
</svg>
