<?xml version="1.0" encoding="UTF-8" standalone="no" ?>
<svg xmlns="http://www.w3.org/2000/svg" width="500" height="221">
  <!-- <style>
  /* <![CDATA[ */
    rect, circle, path {
      transform: translateY(-831.36216px);
    }
  /* ]]> */
  </style> -->
  <g
     transform="translate(0,-831.36216)">
    <circle
       id="path4602"
       cx="250"
       cy="941.64789"
       r="75"
       fill='#FFFFFF'
       stroke-width='0'
       stroke='transparent' />
    <path
       fill='none'
       stroke='#FFFFFF'
       stroke-width='2.5850668'
       stroke-opacity='0.78770949'
       d="m -379.12819,682.64917 a 43.040176,30.606789 0 0 1 -19.80963,25.76575 43.040176,30.606789 0 0 1 -41.19377,2.04791"
       transform="matrix(0.25423434,-0.96714265,0.61922875,0.78521064,0,0)" />
    <path
       fill='none'
       stroke='#FFFFFF'
       stroke-width='1.83199036'
       stroke-opacity='0.78770949'
       d="m -372.66937,704.93451 a 30.501799,21.690481 0 0 1 -14.03874,18.25972 30.501799,21.690481 0 0 1 -29.19328,1.45132"
       transform="matrix(0.25423434,-0.96714265,0.61922875,0.78521064,0,0)" />
    <path
       fill='none'
       stroke='#FFFFFF'
       stroke-width='1.07891393'
       stroke-opacity='0.78770949'
       d="m -366.88561,726.17279 a 17.963421,12.774173 0 0 1 -8.26783,10.7537 17.963421,12.774173 0 0 1 -17.19279,0.85472"
       transform="matrix(0.25423434,-0.96714265,0.61922875,0.78521064,0,0)" />
    <path
       fill='none'
       stroke='#FFFFFF'
       stroke-width='2.5850668'
       stroke-opacity='0.78770949'
       d="m 592.01112,-523.52429 a 43.040176,30.606789 0 0 1 -19.80963,25.76575 43.040176,30.606789 0 0 1 -41.19377,2.04791"
       transform="matrix(-0.25423434,0.96714265,-0.61922875,-0.78521064,0,0)" />
    <path
       fill='none'
       stroke='#FFFFFF'
       stroke-width='1.83199036'
       stroke-opacity='0.78770949'
       d="m 597.63583,-500.89642 a 30.501799,21.690481 0 0 1 -14.03873,18.25972 30.501799,21.690481 0 0 1 -29.19328,1.45132"
       transform="matrix(-0.25423434,0.96714265,-0.61922875,-0.78521064,0,0)" />
    <path
       fill='none'
       stroke='#FFFFFF'
       stroke-width='1.07891393'
       stroke-opacity='0.78770949'
       d="m 602.32304,-479.20792 a 17.963421,12.774173 0 0 1 -8.26783,10.7537 17.963421,12.774173 0 0 1 -17.1928,0.85472"
       transform="matrix(-0.25423434,0.96714265,-0.61922875,-0.78521064,0,0)" />
  </g>
</svg>
