<?xml version="1.0" encoding="UTF-8" standalone="no" ?>
<svg height="221" width="500" xmlns='http://www.w3.org/2000/svg'>
  <g
     transform="translate(0 -831.36)">
    <g
       transform="matrix(1.3449283,0,0,1.3449283,-86.880243,-325.76979)"
       style="fill:#FFFFFF">
      <rect
         transform="matrix(0.96947,0,0,1.0028,48.63,-0.55899)"
         rx="2.8234999"
         ry="2.7541001"
         height="110.16"
         width="68.570999"
         y="880.92999"
         x="89.286003" />
      <rect
         transform="matrix(0.96947,0,0,1.0028,10.982,-2.6257)"
         rx="2.8234999"
         ry="2.7541001"
         height="110.16"
         width="68.570999"
         y="882.98999"
         x="212.14" />
      <rect
         transform="matrix(0.96947,0,0,1.0028,-49.148,-8.356)"
         rx="2.8234999"
         ry="2.7541001"
         height="110.16"
         width="68.570999"
         y="888.71002"
         x="358.57001" />
    </g>
    <g
       transform="matrix(1.3449283,0,0,1.3449283,-86.880243,-325.76979)"
       style="fill:#E0E0E0">
      <rect
         rx="0.889"
         ry="0.11002"
         height="1.6115"
         width="38.615002"
         y="896.17999"
         x="149.12" />
      <rect
         rx="0.889"
         ry="0.11002"
         height="1.6115"
         width="38.615002"
         y="901.70001"
         x="149.12" />
      <rect
         rx="0.889"
         ry="0.11002"
         height="1.6115"
         width="38.615002"
         y="907.21997"
         x="149.12" />
      <rect
         rx="0.514"
         ry="0.11002"
         height="1.6115"
         width="22.326"
         y="912.75"
         x="149.12" />
      <rect
         rx="0.514"
         ry="0.11002"
         height="1.6115"
         width="22.326"
         y="932.23999"
         x="158.99001" />
    </g>
    <rect
       rx="0.097023129"
       ry="0.14796901"
       height="2.167352"
       width="4.2143331"
       y="928.02612"
       x="119.94284"
       style="fill:#BDBDBD" />
    <rect
       rx="0.51436782"
       ry="0.14796901"
       height="2.167352"
       width="22.341948"
       y="934.0918"
       x="126.94991"
       style="fill:#E0E0E0" />
    <rect
       rx="0.097023129"
       ry="0.14796901"
       height="2.167352"
       width="4.2143331"
       y="934.0918"
       x="119.94284"
       style="fill:#BDBDBD" />
    <rect
       rx="0.69129312"
       ry="0.14796901"
       height="2.167352"
       width="30.026869"
       y="940.81641"
       x="126.94991"
       style="fill:#E0E0E0" />
    <rect
       rx="0.097023129"
       ry="0.14796901"
       height="2.167352"
       width="4.2143331"
       y="940.81641"
       x="119.94284"
       style="fill:#BDBDBD" />
    <g
       transform="matrix(1.3449283,0,0,1.3449283,-86.880243,-325.76979)"
       style="fill:#E0E0E0">
      <rect
         height="20.535999"
         width="40.356998"
         y="895.25"
         x="229" />
      <rect
         rx="0.889"
         ry="0.11002"
         height="1.6115"
         width="38.615002"
         y="929.52002"
         x="229.09" />
      <rect
         rx="0.889"
         ry="0.11002"
         height="1.6115"
         width="38.615002"
         y="935.03998"
         x="229.09" />
      <rect
         rx="0.889"
         ry="0.11002"
         height="1.6115"
         width="38.615002"
         y="940.57001"
         x="229.09" />
      <rect
         rx="0.514"
         ry="0.11002"
         height="1.6115"
         width="22.326"
         y="946.09003"
         x="229.09" />
      <rect
         rx="0.514"
         ry="0.11002"
         height="1.6115"
         width="22.326"
         y="897.54999"
         x="322.76999" />
    </g>
    <rect
       rx="0.097023129"
       ry="0.14796901"
       height="2.167352"
       width="4.2143331"
       y="881.37061"
       x="340.22864"
       style="fill:#BDBDBD" />
    <rect
       rx="0.51436782"
       ry="0.14796901"
       height="2.167352"
       width="22.341948"
       y="887.43622"
       x="347.22223"
       style="fill:#E0E0E0" />
    <rect
       rx="0.097023129"
       ry="0.14796901"
       height="2.167352"
       width="4.2143331"
       y="887.43622"
       x="340.22864"
       style="fill:#BDBDBD" />
    <rect
       rx="0.69129312"
       ry="0.14796901"
       height="2.167352"
       width="30.026869"
       y="894.16089"
       x="347.22223"
       style="fill:#E0E0E0" />
    <rect
       rx="0.097023129"
       ry="0.14796901"
       height="2.167352"
       width="4.2143331"
       y="894.16089"
       x="340.22864"
       style="fill:#BDBDBD" />
    <g
       transform="matrix(1.3449283,0,0,1.3449283,-86.880243,-325.76979)"
       style="fill:#E0E0E0">
      <rect
         rx="0.889"
         ry="0.11002"
         height="1.6115"
         width="38.615002"
         y="920.78998"
         x="311.26001" />
      <rect
         rx="0.889"
         ry="0.11002"
         height="1.6115"
         width="38.615002"
         y="926.31"
         x="311.26001" />
      <rect
         rx="0.889"
         ry="0.11002"
         height="1.6115"
         width="38.615002"
         y="931.84003"
         x="311.26001" />
      <rect
         rx="0.514"
         ry="0.11002"
         height="1.6115"
         width="22.326"
         y="937.35999"
         x="311.26001" />
    </g>
  </g>
</svg>
